<?xml version="1.0" encoding="UTF-8"?><svg id="Layer_1" xmlns="http://www.w3.org/2000/svg" viewBox="0 0 184.84 123.9"><path d="m177.04,28.6h-109.51V2.64h109.51v25.96Zm2.63-28.6h-114.78v31.24h114.78V0Z" style="fill:#c9d041;"/><rect x="29.75" y="65.07" width="155.09" height="27.95" style="fill:#c9d041;"/><rect y="34.19" width="152.79" height="27.95" style="fill:#c9d041;"/><rect x="52.3" y="95.95" width="110.03" height="27.95" style="fill:#c9d041;"/><path d="m20.35,42.68c3.92,0,6.87.92,6.87,4.7,0,1.65-.78,2.92-2.14,3.76,1.68.57,2.87,1.84,2.87,4.03,0,4.06-2.92,5.57-7.3,5.57h-8.19v-18.06h7.9Zm-3.62,3.49v3.65h3.76c1.43,0,2.3-.73,2.3-1.84s-.87-1.81-2.3-1.81h-3.76Zm0,6.95v4.08h3.95c1.84,0,2.76-.78,2.76-2.05s-.92-2.03-2.76-2.03h-3.95Z" style="fill:#303031;"/><path d="m29.48,47.33h6.68v13.41h-4.14v-10.27h-2.54v-3.14Zm2.19-4.65c0-1.35,1.08-2.43,2.43-2.43s2.43,1.08,2.43,2.43-1.08,2.43-2.43,2.43-2.43-1.11-2.43-2.43Z" style="fill:#303031;"/><path d="m42.89,42.68v6.49c.87-1.49,2.65-2.22,4.08-2.22,3.46,0,5.92,2.6,5.92,6.98s-2.46,7.14-5.92,7.14c-1.43,0-3.22-.65-4.08-2.14l-.51,1.81h-3.6v-18.06h4.11Zm2.78,15.2c1.6,0,2.95-1.46,2.95-3.95s-1.35-3.79-2.95-3.79-2.97,1.13-2.97,3.87,1.35,3.87,2.97,3.87Z" style="fill:#303031;"/><path d="m54.95,42.68h4.11v13.19c0,1.27.41,1.51,1.78,1.51h1.16v3.35h-2.62c-3.3,0-4.43-.62-4.43-3.79v-14.28Z" style="fill:#303031;"/><path d="m62.09,47.33h6.68v13.41h-4.14v-10.27h-2.54v-3.14Zm2.19-4.65c0-1.35,1.08-2.43,2.43-2.43s2.43,1.08,2.43,2.43-1.08,2.43-2.43,2.43-2.43-1.11-2.43-2.43Z" style="fill:#303031;"/><path d="m77.8,46.95c3.68,0,7.08,2.19,7.08,7.03s-3.41,7.08-7.08,7.08-7.11-2.24-7.11-7.08,3.38-7.03,7.11-7.03Zm-2.92,7.03c0,2.81,1.24,3.89,2.92,3.89s2.89-1.08,2.89-3.89-1.3-3.84-2.89-3.84-2.92,1-2.92,3.84Z" style="fill:#303031;"/><path d="m85.94,47.33h2.22v-3.35h4.11v3.35h2.92v3.14h-2.92v5.41c0,1.27.41,1.51,1.73,1.51h1.19v3.35h-2.6c-3.3,0-4.43-.62-4.43-3.79v-6.49h-2.22v-3.14Z" style="fill:#303031;"/><path d="m97.27,60.74v-18.06h4.11v6.43c.59-1,2.08-2.16,4.14-2.16,3.46,0,4.52,2,4.52,5.62v8.17h-4.11v-7.14c0-1.89-.08-3.46-2.06-3.46-1.73,0-2.49,1.27-2.49,3.7v6.89h-4.11Z" style="fill:#303031;"/><path d="m119.11,46.95c4.41,0,7.14,3.38,6.87,8.11h-9.92c.13,1.89,1.59,2.81,3.11,2.81,1.27,0,2.19-.41,2.7-1l3.27,1.19c-1.41,2.05-3.68,3-5.87,3-4.35,0-7.35-2.68-7.35-7.11s3.27-7,7.19-7Zm-3.05,5.68h6.11c-.05-1.73-1.35-2.62-2.95-2.62s-2.92.78-3.16,2.62Z" style="fill:#303031;"/><path d="m132.09,42.68v9.73l4.49-5.08h4.87l-5.25,5.6,5.65,7.81h-4.87l-3.49-4.87-1.41,1.49v3.38h-4.11v-18.06h4.11Z" style="fill:#303031;"/><path d="m39.22,73.26h2.46l3.52,10.44,3.49-10.44h2.46l-4.79,13.41h-2.35l-4.79-13.41Z" style="fill:#303031;"/><path d="m52.22,79.99c0-4.25,2.84-6.95,6.52-6.95,4.27,0,6.52,3.71,6.25,7.54h-10.33c.11,3.38,2.49,4.41,4.14,4.41,1.51,0,2.51-.51,3.14-1.32l2.19.65c-.97,1.57-2.81,2.68-5.33,2.68-4.22,0-6.57-3.05-6.57-7Zm2.46-1.22h7.9c-.03-1.89-1.46-3.79-3.84-3.79-2.03,0-3.84,1.08-4.06,3.79Z" style="fill:#303031;"/><path d="m69.39,73.26l.73,2.49c.95-1.62,2.54-2.7,4.79-2.7v2.35c-3.68,0-4.89,1.95-4.89,5.52v5.76h-2.27v-13.41h1.65Z" style="fill:#303031;"/><path d="m79.26,68.61v6.76c.81-1.41,2.24-2.33,4.35-2.33,3.06,0,5.76,2.57,5.76,6.98s-2.7,6.98-5.76,6.98c-2.11,0-3.54-.92-4.35-2.35l-.59,2.03h-1.68v-18.06h2.27Zm-.05,11.41c0,3.19,1.51,5.03,3.81,5.03s3.81-1.84,3.81-5.03-1.51-5.03-3.81-5.03-3.81,1.84-3.81,5.03Z" style="fill:#303031;"/><path d="m94.02,73.26l.73,2.49c.95-1.62,2.54-2.7,4.79-2.7v2.35c-3.68,0-4.89,1.95-4.89,5.52v5.76h-2.27v-13.41h1.65Z" style="fill:#303031;"/><path d="m100.38,83.13c0-3.19,3.57-4.11,9.06-4.73.08-2.27-.87-3.54-3.03-3.54-1.62,0-2.68.78-2.97,2.08l-2.19-.65c.73-2.05,2.73-3.25,5.14-3.25,3.7,0,5.3,1.68,5.33,5.44l.03,3.14c.03,2.25.22,3.79.46,5.06h-2.08l-.54-1.84c-.81,1.35-2.22,2.16-4.57,2.16-2.54,0-4.62-1.41-4.62-3.87Zm2.51-.05c0,1.27.97,2.11,2.6,2.11,2.11,0,4.14-.97,4.14-4.14v-.84c-4.11.43-6.73,1.03-6.73,2.87Z" style="fill:#303031;"/><path d="m117.22,73.26l.6,2.03c.76-1.27,2.05-2.25,4.33-2.25,3.24,0,4.43,2.08,4.43,5.14v8.49h-2.27v-7.81c0-2.05-.35-3.87-2.95-3.87-2.19,0-3.54,1.54-3.54,4.41v7.27h-2.27v-13.41h1.68Z" style="fill:#303031;"/><path d="m132.06,73.26l.6,2.03c.76-1.27,2.05-2.25,4.33-2.25,3.24,0,4.43,2.08,4.43,5.14v8.49h-2.27v-7.81c0-2.05-.35-3.87-2.95-3.87-2.19,0-3.54,1.54-3.54,4.41v7.27h-2.27v-13.41h1.68Z" style="fill:#303031;"/><path d="m145.83,73.26v-3.38h2.27v3.38h2.6v1.81h-2.6v7.87c0,1.38.08,1.73,1.38,1.73h1.22v2h-1.7c-2.57,0-3.16-.57-3.16-3.35v-8.25h-2.27v-1.81h2.27Z" style="fill:#303031;"/><path d="m152.88,79.99c0-4.25,2.84-6.95,6.52-6.95,4.27,0,6.52,3.71,6.25,7.54h-10.33c.11,3.38,2.49,4.41,4.14,4.41,1.51,0,2.51-.51,3.14-1.32l2.19.65c-.97,1.57-2.81,2.68-5.33,2.68-4.22,0-6.57-3.05-6.57-7Zm2.46-1.22h7.89c-.03-1.89-1.46-3.79-3.84-3.79-2.03,0-3.84,1.08-4.06,3.79Z" style="fill:#303031;"/><path d="m170.05,73.26l.73,2.49c.95-1.62,2.54-2.7,4.79-2.7v2.35c-3.68,0-4.89,1.95-4.89,5.52v5.76h-2.27v-13.41h1.65Z" style="fill:#303031;"/><path d="m72.26,97.38c3.92,0,6.87.92,6.87,4.7,0,1.65-.78,2.92-2.14,3.76,1.68.57,2.87,1.84,2.87,4.03,0,4.06-2.92,5.57-7.3,5.57h-8.19v-18.06h7.9Zm-3.62,3.49v3.65h3.76c1.43,0,2.3-.73,2.3-1.84s-.87-1.81-2.3-1.81h-3.76Zm0,6.95v4.08h3.95c1.84,0,2.76-.78,2.76-2.05s-.92-2.03-2.76-2.03h-3.95Z" style="fill:#303031;"/><path d="m82.1,110.09v-8.06h4.11v7.03c0,1.92.05,3.51,2.05,3.51,1.73,0,2.38-1,2.38-3.49v-7.06h4.14v13.41h-3.57l-.57-1.89c-.78,1.33-1.84,2.22-3.89,2.22-3.57,0-4.65-2.03-4.65-5.68Zm1.78-12.17c0-1.05.87-1.92,1.92-1.92s1.89.87,1.89,1.92-.84,1.89-1.89,1.89-1.92-.84-1.92-1.89Zm7.17-1.92c1.03,0,1.87.87,1.87,1.92s-.84,1.89-1.87,1.89-1.92-.84-1.92-1.89.87-1.92,1.92-1.92Z" style="fill:#303031;"/><path d="m96.89,108.65c0-4.22,2.79-7,6.87-7,2.3,0,4.81.87,6.06,3.52l-3.43,1.24c-.43-1.13-1.35-1.57-2.38-1.57-1.49,0-2.92,1-2.92,3.84s1.46,3.89,2.92,3.89c1.14,0,1.95-.49,2.41-1.27l3.35,1.22c-1.38,2.43-3.87,3.24-6,3.24-4.43,0-6.87-2.87-6.87-7.11Z" style="fill:#303031;"/><path d="m111.73,115.44v-18.06h4.11v6.43c.6-1,2.08-2.16,4.14-2.16,3.46,0,4.52,2,4.52,5.62v8.17h-4.11v-7.14c0-1.89-.08-3.46-2.05-3.46-1.73,0-2.49,1.27-2.49,3.71v6.89h-4.11Z" style="fill:#303031;"/><path d="m133.58,101.65c4.41,0,7.14,3.38,6.87,8.11h-9.92c.13,1.89,1.6,2.81,3.11,2.81,1.27,0,2.19-.41,2.7-1l3.27,1.19c-1.41,2.05-3.68,3-5.87,3-4.35,0-7.35-2.68-7.35-7.11s3.27-7,7.19-7Zm-3.06,5.68h6.11c-.05-1.73-1.35-2.62-2.95-2.62s-2.92.78-3.16,2.62Z" style="fill:#303031;"/><path d="m142.47,115.44v-13.41h3.24l.73,2.46c.84-2.16,2.27-2.95,4.33-2.84v4.11c-.43-.05-.73-.08-1.11-.08-2,0-3.08.87-3.08,3v6.76h-4.11Z" style="fill:#303031;"/><path d="m77.72,17.7c0-4.41,2.7-6.98,5.76-6.98,2.11,0,3.54.92,4.35,2.33v-6.76h2.27v13c0,.89,0,2.7.46,5.06h-2.14l-.6-2.03c-.81,1.43-2.24,2.35-4.35,2.35-3.06,0-5.76-2.54-5.76-6.98Zm2.54,0c0,3.19,1.51,5.03,3.81,5.03s3.81-1.84,3.81-5.03-1.51-5.03-3.81-5.03-3.81,1.84-3.81,5.03Z" style="fill:#c9d041;"/><path d="m97.35,10.94v13.41h-2.27v-11.6h-1.87v-1.81h4.14Zm-2.81-4.25c0-.92.76-1.68,1.68-1.68s1.7.76,1.7,1.68-.76,1.7-1.7,1.7-1.68-.76-1.68-1.7Z" style="fill:#c9d041;"/><path d="m100.59,17.43c0-4.3,2.7-6.71,5.68-6.71,2.14,0,3.43.92,4.27,2.33l.62-2.11h1.65v12.14c0,2.65-.16,4.89-3.27,6.03-.76.27-1.65.43-2.57.43-2.19,0-4.52-.89-5.22-3.14l2.27-.62c.49,1.41,1.84,1.76,2.95,1.76.68,0,1.27-.13,1.51-.22,1.65-.57,2.05-1.54,2.05-3.73v-1.79c-.84,1.41-2.14,2.3-4.27,2.3-2.97,0-5.68-2.38-5.68-6.68Zm2.46,0c0,3.06,1.57,4.79,3.79,4.79,2.03,0,3.79-1.38,3.79-4.79s-1.76-4.76-3.79-4.76c-2.22,0-3.79,1.7-3.79,4.76Z" style="fill:#c9d041;"/><path d="m120.14,10.94v13.41h-2.27v-11.6h-1.87v-1.81h4.14Zm-2.81-4.25c0-.92.76-1.68,1.68-1.68s1.7.76,1.7,1.68-.76,1.7-1.7,1.7-1.68-.76-1.68-1.7Z" style="fill:#c9d041;"/><path d="m125.17,10.94v-3.38h2.27v3.38h2.6v1.81h-2.6v7.87c0,1.38.08,1.73,1.38,1.73h1.22v2h-1.7c-2.57,0-3.16-.57-3.16-3.35v-8.25h-2.27v-1.81h2.27Z" style="fill:#c9d041;"/><path d="m132.23,20.81c0-3.19,3.57-4.11,9.06-4.73.08-2.27-.87-3.54-3.03-3.54-1.62,0-2.68.78-2.97,2.08l-2.19-.65c.73-2.05,2.73-3.25,5.14-3.25,3.7,0,5.3,1.68,5.33,5.44l.03,3.14c.03,2.25.22,3.79.46,5.06h-2.08l-.54-1.84c-.81,1.35-2.22,2.16-4.57,2.16-2.54,0-4.62-1.41-4.62-3.87Zm2.51-.05c0,1.27.97,2.11,2.6,2.11,2.11,0,4.14-.97,4.14-4.14v-.84c-4.11.43-6.73,1.03-6.73,2.87Z" style="fill:#c9d041;"/><path d="m147.39,6.32h2.27v14.3c0,1.38.11,1.73,1.38,1.73h.51v2h-1c-2.57,0-3.16-.57-3.16-3.35V6.32Z" style="fill:#c9d041;"/><path d="m153.07,17.67c0-4.25,2.84-6.95,6.52-6.95,4.27,0,6.52,3.71,6.25,7.54h-10.33c.11,3.38,2.49,4.41,4.14,4.41,1.51,0,2.51-.51,3.14-1.32l2.19.65c-.97,1.57-2.81,2.68-5.33,2.68-4.22,0-6.57-3.05-6.57-7Zm2.46-1.22h7.9c-.03-1.89-1.46-3.79-3.84-3.79-2.03,0-3.84,1.08-4.06,3.79Z" style="fill:#c9d041;"/></svg>