<?xml version="1.0" encoding="utf-8"?>
<!-- Generator: Adobe Illustrator 26.0.3, SVG Export Plug-In . SVG Version: 6.00 Build 0)  -->
<svg version="1.1" id="Ebene_1" xmlns="http://www.w3.org/2000/svg" xmlns:xlink="http://www.w3.org/1999/xlink" x="0px" y="0px"
	 viewBox="0 0 1001.4 504.2" style="enable-background:new 0 0 1001.4 504.2;" xml:space="preserve">
<style type="text/css">
	.st0{fill:#FFFFFF;}
</style>
<g>
	<path class="st0" d="M220.4,44c0-24.3,19.8-44,44.1-44c24.3,0,44,19.7,44,44c0,24.3-19.7,44-44,44C240.2,87.9,220.4,68.2,220.4,44z
		 M299.8,44c0-19.5-15.9-35.3-35.3-35.3c-19.5,0-35.3,15.9-35.3,35.3c0,19.5,15.9,35.3,35.3,35.3C283.9,79.3,299.8,63.4,299.8,44z"
		/>
	<path class="st0" d="M328.8,59.7c0,5.4,2.6,11.2,7.2,15.1c3.1,2.6,7.2,4.4,12,4.4c11.9,0,17.9-7.6,17.9-15.6
		c0-8.6-5.3-13-17.1-16.1l-7.2-1.9c-12.8-3.5-19.3-10-19.3-22.7c0-11.8,10.4-22.9,26.1-22.9c17,0,24.9,14,24.9,25.2h-8.8
		c0-4.3-1.6-8.6-4.4-11.8c-2.8-2.9-6.8-4.8-11.8-4.8c-10.6,0-17.2,7-17.2,14.3c0,7.7,2.6,11.4,12.7,14.3l7.1,2
		c16.7,4.8,23.8,12,23.8,24.4c0,12.2-9.7,24.3-26.7,24.3c-15.9,0-28.5-12.6-28.5-28.2H328.8z"/>
	<path class="st0" d="M446.1,9.4h-46.8v30.3h42.5v8.6h-42.5v30.3h46.8v8.6h-55.5V0.7h55.5V9.4z"/>
	<path class="st0" d="M468.4,59.7c0,5.4,2.6,11.2,7.2,15.1c3.1,2.6,7.2,4.4,12,4.4c11.9,0,17.9-7.6,17.9-15.6
		c0-8.6-5.3-13-17.1-16.1l-7.2-1.9c-12.8-3.5-19.3-10-19.3-22.7C461.9,11.2,472.4,0,488,0c17.1,0,24.9,14,24.9,25.2h-8.8
		c0-4.3-1.6-8.6-4.4-11.8c-2.8-2.9-6.8-4.8-11.8-4.8c-10.6,0-17.2,7-17.2,14.3c0,7.7,2.6,11.4,12.7,14.3l7.1,2
		c16.7,4.8,23.8,12,23.8,24.4c0,12.2-9.7,24.3-26.7,24.3c-15.9,0-28.5-12.6-28.5-28.2H468.4z"/>
</g>
<g>
	<path class="st0" d="M280.4,128h-46.8v30.3h42.5v8.6h-42.5v30.3h46.8v8.6h-55.5v-86.5h55.5V128z"/>
	<path class="st0" d="M368,205.8h-8.6l-51.8-72.2v72.2H299v-86.5h8.6l51.8,72.3v-72.3h8.6V205.8z"/>
	<path class="st0" d="M461.4,162.6c0,26.8-21.1,43.2-43.1,43.2h-29.1v-86.5h29.1C440.1,119.3,461.4,135.8,461.4,162.6z M452.7,162.6
		c0-19.1-15.5-34.6-34.5-34.6h-20.4v69.2h20.4C437.2,197.1,452.7,181.6,452.7,162.6z"/>
	<path class="st0" d="M533.5,128h-46.8v30.3h42.5v8.6h-42.5v30.3h46.8v8.6H478v-86.5h55.5V128z"/>
	<path class="st0" d="M601.5,197.1v8.6H552v-86.5h8.6v77.8H601.5z"/>
	<path class="st0" d="M617.9,178.3c0,5.4,2.6,11.2,7.2,15.1c3.1,2.6,7.2,4.4,12,4.4c11.9,0,17.9-7.6,17.9-15.6
		c0-8.6-5.3-13-17.1-16.1l-7.2-1.9c-12.8-3.5-19.3-10-19.3-22.7c0-11.8,10.4-22.9,26.1-22.9c17.1,0,24.9,14,24.9,25.2h-8.8
		c0-4.3-1.6-8.6-4.4-11.8c-2.8-2.9-6.8-4.8-11.8-4.8c-10.6,0-17.2,7-17.2,14.3c0,7.7,2.6,11.4,12.7,14.3l7.1,2
		c16.7,4.8,23.8,12,23.8,24.4c0,12.2-9.7,24.3-26.7,24.3c-15.9,0-28.5-12.6-28.5-28.2H617.9z"/>
	<path class="st0" d="M683.5,178.3c0,5.4,2.6,11.2,7.2,15.1c3.1,2.6,7.2,4.4,12,4.4c11.9,0,17.9-7.6,17.9-15.6
		c0-8.6-5.3-13-17.1-16.1l-7.2-1.9c-12.8-3.5-19.3-10-19.3-22.7c0-11.8,10.4-22.9,26.1-22.9c17,0,24.9,14,24.9,25.2h-8.8
		c0-4.3-1.6-8.6-4.4-11.8c-2.8-2.9-6.8-4.8-11.8-4.8c-10.6,0-17.2,7-17.2,14.3c0,7.7,2.6,11.4,12.7,14.3l7.1,2
		c16.7,4.8,23.8,12,23.8,24.4c0,12.2-9.7,24.3-26.7,24.3c-15.9,0-28.5-12.6-28.5-28.2H683.5z"/>
	<path class="st0" d="M740.8,162.6c0-24.3,19.8-44,44.1-44c24.3,0,44,19.7,44,44c0,24.3-19.7,44-44,44
		C760.6,206.5,740.8,186.8,740.8,162.6z M820.2,162.6c0-19.5-15.9-35.3-35.3-35.3c-19.5,0-35.3,15.9-35.3,35.3
		c0,19.5,15.9,35.3,35.3,35.3C804.3,197.9,820.2,182,820.2,162.6z"/>
	<path class="st0" d="M911.2,205.8h-8.6v-38.9h-48.4v38.9h-8.6v-86.5h8.6v38.9h48.4v-38.9h8.6V205.8z"/>
	<path class="st0" d="M1001.4,205.8h-8.6L941,133.6v72.2h-8.6v-86.5h8.6l51.8,72.3v-72.3h8.6V205.8z"/>
</g>
<g>
	<path class="st0" d="M280.4,246.6h-46.8v30.3h42.5v8.6h-42.5v30.3h46.8v8.6h-55.5V238h55.5V246.6z"/>
	<path class="st0" d="M368,324.5h-8.6l-51.8-72.2v72.2H299V238h8.6l51.8,72.3V238h8.6V324.5z"/>
	<path class="st0" d="M441.9,246.6h-26.7v77.8h-8.6v-77.8h-26.5v-0.5H380V238h62V246.6z"/>
	<path class="st0" d="M513.1,324.5h-9.6L486,290.1h-23.5v34.3h-8.6V238H486c15,0,26.1,13,26.1,26.1c0,10.4-6.8,20.7-17.3,24.5
		L513.1,324.5z M462.5,281.5H486c9.6,0,17.4-7.9,17.4-17.4c0-9.6-7.8-17.4-17.4-17.4h-23.5V281.5z"/>
	<path class="st0" d="M585.6,294.9c0,16.7-13.6,30.3-30.3,30.3c-16.7,0-30.3-13.6-30.3-30.3V238h8.6v56.9c0,11.9,9.7,21.6,21.6,21.6
		c11.9,0,21.6-9.7,21.6-21.6V238h8.6V294.9z"/>
	<path class="st0" d="M691.4,324.5h-8.6v-65.6l-29.9,65.6h-9l-30.3-65.8v65.8h-8.6V238h8.6l34.7,76.5l34.5-76.5h8.6V324.5z"/>
</g>
<polygon class="st0" points="205,0.6 196.4,0.6 161.9,41.7 127.2,0.6 118.5,0.6 118.5,87.1 127.2,87.1 127.2,13.1 157.5,48.9 
	166.5,48.9 196.4,13.4 196.4,87.1 205,87.1 205,0.6 "/>
<polygon class="st0" points="205,118.9 196.4,118.9 161.9,159.9 127.2,118.9 118.5,118.9 118.5,205.4 127.2,205.4 127.2,131.4 
	157.5,167.1 166.5,167.1 196.4,131.6 196.4,205.4 205,205.4 205,118.9 "/>
<polygon class="st0" points="86.5,315.2 49.5,281.9 86.5,249 86.3,237.4 43.1,276.1 0.2,237.4 0,249 73.7,315.2 0,315.2 0,323.7 
	86.6,323.7 86.6,315.8 86.8,315.5 86.6,315.2 86.6,315.2 86.5,315.2 "/>
<polygon class="st0" points="86.6,87.2 86.6,78.7 86.6,9.1 86.6,0.6 78.1,0.6 8.5,0.6 0,0.6 0,9.1 0,87.2 8.5,87.2 8.5,9.1 
	78.1,9.1 78.1,78.7 43.3,78.7 43.3,87.2 78.1,87.2 86.6,87.2 "/>
<polygon class="st0" points="86.6,205.4 86.6,196.9 86.6,127.4 86.6,118.9 78.1,118.9 8.5,118.9 0,118.9 0,127.4 0,205.4 8.5,205.4 
	8.5,127.4 78.1,127.4 78.1,196.9 43.3,196.9 43.3,205.4 78.1,205.4 86.6,205.4 "/>
<polygon class="st0" points="205.1,316 131.3,316 204.2,247.1 204,246.8 204.2,246.8 204.2,238.3 121.4,238.3 121.4,246.8 
	192.2,246.8 118.9,316 118.5,316 118.5,324.5 205.1,324.5 205.1,316 "/>
<g>
	<path class="st0" d="M152.1,368.7h-24.6v15.9h22.3v4.5h-22.3V405h24.6v4.5h-29.2v-45.4h29.2V368.7z"/>
	<path class="st0" d="M187.5,409.6h-4.5v-5.4c-2.6,3.8-6.6,5.8-10.8,5.8c-6.2,0-11.3-5.9-11.3-13.1V377h4.5v19.8
		c0,4.8,3.9,8.7,8.7,8.7c4.9,0,8.8-4,8.8-8.7V377h4.5V409.6z"/>
	<path class="st0" d="M213.6,376.8v4.4c-0.4-0.1-2.3-0.1-2.5-0.1c-4.5,0-8.7,3-8.7,9.5v19h-4.5V377h4.5v4.9c1.8-3.1,4.5-5.2,8.1-5.2
		C211.9,376.6,213,376.8,213.6,376.8z"/>
	<path class="st0" d="M217.7,393.3c0-9.2,6.5-16.7,15.5-16.7h0.1c8.9,0,15.4,7.4,15.4,16.7s-6.5,16.7-15.4,16.7h-0.1
		C224.2,409.9,217.7,402.5,217.7,393.3z M233.3,405.4c6.4,0,10.9-5.4,10.9-12.1c0-6.5-4.4-12.1-10.9-12.1h-0.1
		c-6.5,0.1-10.9,5.4-10.9,12.1C222.3,400,226.7,405.4,233.3,405.4L233.3,405.4z"/>
	<path class="st0" d="M287,393.3c0,9.3-6.5,16.7-14.1,16.7c-5.1,0-9.1-2.5-11.7-6.4v20.8h-4.5V377h4.5v5.9c2.5-3.9,6.6-6.3,11.7-6.3
		C280.5,376.6,287,383.9,287,393.3z M282.2,393.3c0-6.9-4.2-12.2-10.8-12.2s-10.2,5.4-10.2,12.2s3.7,12.2,10.2,12.2
		S282.2,400.2,282.2,393.3z"/>
	<path class="st0" d="M323.6,377v3.9v12.2c0,5.4,0,7.1,0,12.5v0.1v3.8h-4.6c0-3.1,0-5,0-6.2c-2.3,4-6.3,6.6-12,6.6h-0.1
		c-7.6,0-13.7-7.1-13.7-16.7c0-9.3,6.1-16.7,13.7-16.7h0.1c5.7,0,9.7,2.7,12.1,6.8V377H323.6z M318.9,394.4c0-0.7,0.1-1.4,0.1-2.1
		c-0.4-6.4-4.4-11.2-10.2-11.2h-0.1c-7,0-11,5.1-11,12.2c0,7.3,4.1,12.2,11,12.2h0.1C314.6,405.5,318.6,400.7,318.9,394.4z
		 M300.1,371.9c-0.7-0.7-1-1.5-1-2.5c0-0.9,0.3-1.8,1-2.5s1.5-1,2.5-1s1.8,0.3,2.5,1s1,1.5,1,2.5c0,0.9-0.3,1.8-1,2.5s-1.5,1-2.5,1
		S300.8,372.6,300.1,371.9z M313,371.9c-0.7-0.7-1-1.5-1-2.5c0-0.9,0.3-1.8,1-2.5s1.5-1,2.5-1c0.9,0,1.8,0.3,2.5,1s1,1.5,1,2.5
		c0,0.9-0.3,1.8-1,2.5s-1.5,1-2.5,1C314.5,372.9,313.7,372.6,313,371.9z"/>
	<path class="st0" d="M339.5,367.5c0,2.1-1.6,3.8-3.8,3.8c-2.2,0-3.8-1.7-3.8-3.8c0-2.1,1.6-3.8,3.8-3.8
		C337.9,363.8,339.5,365.4,339.5,367.5z M337.9,409.6h-4.5V377h4.5V409.6z"/>
	<path class="st0" d="M352.4,403.8c1.3,1.1,3,1.8,5,1.8c4.4,0,6.8-2.4,6.8-5.3c0-3-2-4.4-6.8-5.4l-3.3-0.8c-3.2-0.8-7.6-2.7-7.6-8.5
		c0-4.7,4.2-9.1,10.8-9c6.7,0.1,10.8,5.6,10.8,10.1h-4.6c0-1.4-0.7-2.9-1.9-4c-1.1-0.9-2.5-1.6-4.4-1.6c-3.6,0-6.2,1.9-6.2,4.5
		c0,2.6,1.6,3.9,4.9,4.6l3.6,0.8c6.2,1.3,9.2,4.7,9.2,9.3c0,5-4,9.6-11.4,9.6c-7.8,0-11.6-6.1-11.6-10.8h4.4
		C350.1,400.9,350.9,402.6,352.4,403.8z"/>
	<path class="st0" d="M395.9,382.9c-1.3-1-3.2-1.8-5.7-1.8c-6.5,0-11.1,5.4-11.1,12.1c0,6.7,4.6,12.1,11.1,12.1
		c2.7,0,4.7-0.9,6.1-2.1c1.7-1.4,2.5-3.2,2.7-3.9h4.8c-0.6,3-4.9,10.5-13.6,10.5c-9,0-15.6-7.4-15.6-16.7s6.7-16.7,15.6-16.7
		c9,0,13.3,7.3,13.7,10.7h-4.9C398.8,386.4,397.9,384.5,395.9,382.9z"/>
	<path class="st0" d="M437.8,389.8v19.8h-4.5v-19.8c0-4.8-3.9-8.7-8.7-8.7c-4.9,0-8.8,4-8.8,8.7v19.8h-4.5v-45.4h4.5v18.3
		c2.6-3.8,6.6-5.8,10.8-5.8C432.7,376.6,437.8,382.6,437.8,389.8z"/>
	<path class="st0" d="M463.8,392.6h-18.2v-4.2h18.2V392.6z"/>
	<path class="st0" d="M495.9,364.1v32.2c0,7.5-6.1,13.6-13.6,13.6c-7.5,0-13.6-6.1-13.6-13.6v-4.9h4.5v4.9c0,5,4,9.1,9.1,9.1
		c5,0,9.1-4,9.1-9.1v-32.2H495.9z"/>
	<path class="st0" d="M531.7,409.6h-4.5v-5.4c-2.6,3.8-6.6,5.8-10.8,5.8c-6.2,0-11.3-5.9-11.3-13.1V377h4.5v19.8
		c0,4.8,3.9,8.7,8.7,8.7c4.9,0,8.8-4,8.8-8.7V377h4.5V409.6z M509.3,371.9c-0.7-0.7-1-1.5-1-2.5c0-0.9,0.3-1.8,1-2.5s1.5-1,2.5-1
		c0.9,0,1.8,0.3,2.5,1c0.7,0.7,1,1.5,1,2.5c0,0.9-0.3,1.8-1,2.5c-0.7,0.7-1.5,1-2.5,1C510.8,372.9,510,372.6,509.3,371.9z
		 M522.2,371.9c-0.7-0.7-1-1.5-1-2.5c0-0.9,0.3-1.8,1-2.5c0.7-0.7,1.5-1,2.5-1c0.9,0,1.8,0.3,2.5,1s1,1.5,1,2.5c0,0.9-0.3,1.8-1,2.5
		s-1.5,1-2.5,1C523.7,372.9,522.9,372.6,522.2,371.9z"/>
	<path class="st0" d="M570.3,409.6h-4.5v-5.9c-2.5,3.8-6.6,6.3-11.7,6.3c-7.6,0-14.1-7.3-14.1-16.7s6.5-16.7,14.1-16.7
		c5.1,0,9.2,2.5,11.7,6.4v-18.9h4.5V409.6z M565.8,393.3c0-6.9-3.7-12.2-10.2-12.2c-6.6,0-11.1,5.3-11.1,12.2s4.5,12.2,11.1,12.2
		C562.1,405.5,565.8,400.2,565.8,393.3z"/>
	<path class="st0" d="M586.9,367.5c0,2.1-1.6,3.8-3.8,3.8c-2.2,0-3.8-1.7-3.8-3.8c0-2.1,1.6-3.8,3.8-3.8
		C585.3,363.8,586.9,365.4,586.9,367.5z M585.3,409.6h-4.5V377h4.5V409.6z"/>
	<path class="st0" d="M599.8,403.8c1.3,1.1,3,1.8,5,1.8c4.4,0,6.8-2.4,6.8-5.3c0-3-2-4.4-6.8-5.4l-3.3-0.8c-3.2-0.8-7.6-2.7-7.6-8.5
		c0-4.7,4.2-9.1,10.8-9c6.7,0.1,10.8,5.6,10.8,10.1h-4.6c0-1.4-0.7-2.9-1.9-4c-1.1-0.9-2.5-1.6-4.4-1.6c-3.6,0-6.2,1.9-6.2,4.5
		c0,2.6,1.6,3.9,4.9,4.6l3.6,0.8c6.2,1.3,9.2,4.7,9.2,9.3c0,5-4,9.6-11.4,9.6c-7.8,0-11.6-6.1-11.6-10.8h4.4
		C597.5,400.9,598.3,402.6,599.8,403.8z"/>
	<path class="st0" d="M643.3,382.9c-1.3-1-3.2-1.8-5.7-1.8c-6.5,0-11.1,5.4-11.1,12.1c0,6.7,4.6,12.1,11.1,12.1
		c2.7,0,4.7-0.9,6.1-2.1c1.7-1.4,2.5-3.2,2.7-3.9h4.8c-0.6,3-4.9,10.5-13.6,10.5c-9,0-15.6-7.4-15.6-16.7s6.7-16.7,15.6-16.7
		c9,0,13.3,7.3,13.7,10.7h-4.9C646.2,386.4,645.3,384.5,643.3,382.9z"/>
	<path class="st0" d="M685.2,389.8v19.8h-4.5v-19.8c0-4.8-3.9-8.7-8.7-8.7c-4.9,0-8.8,4-8.8,8.7v19.8h-4.5v-45.4h4.5v18.3
		c2.6-3.8,6.6-5.8,10.8-5.8C680.1,376.6,685.2,382.6,685.2,389.8z"/>
	<path class="st0" d="M708.4,405.4c6,0,9-4.3,9.5-5.9h4.9c-0.4,2.7-4.7,10.5-14.4,10.5c-9.4,0-15.5-7.3-15.5-16.7
		c0-9.2,6.2-16.7,15.2-16.7c9,0,15.2,7.4,15.2,16c0,0.8-0.1,1.5-0.1,2.3h-25.7C698.2,400.9,702,405.4,708.4,405.4z M718.7,390.8
		c-0.8-5.3-4.7-9.7-10.5-9.7c-5.7,0-9.6,4.2-10.5,9.7H718.7z"/>
	<path class="st0" d="M751.8,395.1c0,2.8,1.4,5.9,3.8,8c1.6,1.4,3.8,2.3,6.3,2.3c6.2,0,9.4-4,9.4-8.2c0-4.5-2.8-6.8-9-8.5l-3.8-1
		c-6.7-1.8-10.2-5.2-10.2-11.9c0-6.2,5.5-12.1,13.7-12.1c9,0,13.1,7.4,13.1,13.3h-4.6c0-2.3-0.8-4.5-2.3-6.2
		c-1.5-1.5-3.6-2.5-6.2-2.5c-5.6,0-9,3.7-9,7.5c0,4,1.4,6,6.7,7.5l3.7,1.1c8.8,2.5,12.5,6.3,12.5,12.8c0,6.4-5.1,12.7-14,12.7
		c-8.3,0-15-6.6-15-14.8H751.8z"/>
	<path class="st0" d="M800.2,403.7v4.5c-0.4,0.3-2.7,1.8-5.2,1.8c-4.9,0-9.1-3-9.1-8.4v-20.6h-5.9V377h5.9v-9.1h4.5v9.1h9.7v3.9
		h-9.7v20.4c0,3,1.9,4.1,4.4,4.1C797.1,405.5,799.6,404.1,800.2,403.7z"/>
	<path class="st0" d="M833.2,409.6h-4.5v-5.4c-2.6,3.8-6.6,5.8-10.8,5.8c-6.2,0-11.3-5.9-11.3-13.1V377h4.5v19.8
		c0,4.8,3.9,8.7,8.7,8.7c4.9,0,8.8-4,8.8-8.7V377h4.5V409.6z"/>
	<path class="st0" d="M871.9,409.6h-4.5v-5.9c-2.5,3.8-6.6,6.3-11.7,6.3c-7.6,0-14.1-7.3-14.1-16.7s6.5-16.7,14.1-16.7
		c5.1,0,9.2,2.5,11.7,6.4v-18.9h4.5V409.6z M867.3,393.3c0-6.9-3.7-12.2-10.2-12.2c-6.6,0-11.1,5.3-11.1,12.2s4.5,12.2,11.1,12.2
		C863.7,405.5,867.3,400.2,867.3,393.3z"/>
	<path class="st0" d="M888.5,367.5c0,2.1-1.6,3.8-3.8,3.8c-2.2,0-3.8-1.7-3.8-3.8c0-2.1,1.6-3.8,3.8-3.8
		C886.8,363.8,888.5,365.4,888.5,367.5z M886.8,409.6h-4.5V377h4.5V409.6z"/>
	<path class="st0" d="M910.9,405.4c6,0,9-4.3,9.5-5.9h4.9c-0.4,2.7-4.7,10.5-14.4,10.5c-9.4,0-15.5-7.3-15.5-16.7
		c0-9.2,6.2-16.7,15.2-16.7c9,0,15.2,7.4,15.2,16c0,0.8-0.1,1.5-0.1,2.3H900C900.6,400.9,904.5,405.4,910.9,405.4z M921.2,390.8
		c-0.8-5.3-4.7-9.7-10.5-9.7c-5.7,0-9.6,4.2-10.5,9.7H921.2z"/>
	<path class="st0" d="M960.4,389.8v19.8h-4.5v-19.8c0-4.8-3.9-8.7-8.7-8.7c-4.9,0-8.8,4-8.8,8.7v19.8h-4.5V377h4.5v5.4
		c2.6-3.8,6.6-5.8,10.8-5.8C955.3,376.6,960.4,382.6,960.4,389.8z"/>
	<path class="st0" d="M153.7,473.5c0,8.8-7.1,15.9-15.9,15.9s-15.9-7.1-15.9-15.9v-29.9h4.5v29.9c0,6.2,5.1,11.4,11.4,11.4
		s11.4-5.1,11.4-11.4v-29.9h4.5V473.5z"/>
	<path class="st0" d="M190.1,469.2V489h-4.5v-19.8c0-4.8-3.9-8.7-8.7-8.7c-4.9,0-8.8,4-8.8,8.7V489h-4.5v-32.6h4.5v5.4
		c2.6-3.8,6.6-5.8,10.8-5.8C184.9,456.1,190.1,462,190.1,469.2z"/>
	<path class="st0" d="M206.1,447c0,2.1-1.6,3.8-3.8,3.8c-2.2,0-3.8-1.7-3.8-3.8c0-2.1,1.6-3.8,3.8-3.8
		C204.4,443.2,206.1,444.9,206.1,447z M204.4,489h-4.5v-32.6h4.5V489z"/>
	<path class="st0" d="M228.7,489h-4.9l-13.4-32.6h4.9l10.9,26.6l10.9-26.6h4.9L228.7,489z"/>
	<path class="st0" d="M261,484.9c6,0,9-4.3,9.5-5.9h4.9c-0.4,2.7-4.7,10.5-14.4,10.5c-9.4,0-15.5-7.3-15.5-16.7
		c0-9.2,6.2-16.7,15.2-16.7c9,0,15.2,7.4,15.2,16c0,0.8-0.1,1.5-0.1,2.3h-25.7C250.8,480.4,254.6,484.9,261,484.9z M271.3,470.3
		c-0.8-5.3-4.7-9.7-10.5-9.7c-5.7,0-9.6,4.2-10.5,9.7H271.3z"/>
	<path class="st0" d="M299.6,456.3v4.4c-0.4-0.1-2.3-0.1-2.5-0.1c-4.5,0-8.7,3-8.7,9.5v19h-4.5v-32.6h4.5v4.9
		c1.8-3.1,4.5-5.2,8.1-5.2C297.9,456.1,299,456.2,299.6,456.3z"/>
	<path class="st0" d="M309.7,483.3c1.3,1.1,3,1.8,5,1.8c4.4,0,6.8-2.4,6.8-5.3c0-3-2-4.4-6.7-5.4l-3.4-0.8c-3.2-0.8-7.6-2.7-7.6-8.5
		c0-4.7,4.2-9.1,10.8-9c6.7,0.1,10.8,5.6,10.8,10.1h-4.6c0-1.4-0.7-2.9-1.9-4c-1.1-0.9-2.5-1.6-4.4-1.6c-3.6,0-6.2,1.9-6.2,4.5
		c0,2.6,1.6,3.9,4.9,4.6l3.6,0.8c6.2,1.3,9.2,4.7,9.2,9.3c0,5-4,9.6-11.4,9.6c-7.8,0-11.6-6.1-11.6-10.8h4.4
		C307.4,480.3,308.3,482.1,309.7,483.3z"/>
	<path class="st0" d="M340.2,447c0,2.1-1.6,3.8-3.8,3.8c-2.2,0-3.8-1.7-3.8-3.8c0-2.1,1.6-3.8,3.8-3.8
		C338.6,443.2,340.2,444.9,340.2,447z M338.6,489H334v-32.6h4.5V489z"/>
	<path class="st0" d="M365.5,483.2v4.5c-0.4,0.3-2.7,1.8-5.2,1.8c-4.9,0-9.1-3-9.1-8.4v-20.6h-5.9v-3.9h5.9v-9.1h4.5v9.1h9.7v3.9
		h-9.7v20.4c0,3,1.9,4.1,4.4,4.1C362.4,484.9,364.9,483.6,365.5,483.2z"/>
	<path class="st0" d="M400.7,456.5v3.9v12.2c0,5.4,0,7.1,0,12.5v0.1v3.8h-4.6c0-3.1,0-5.1,0-6.2c-2.3,4-6.3,6.6-12,6.6H384
		c-7.6,0-13.7-7.1-13.7-16.7c0-9.3,6.1-16.7,13.7-16.7h0.1c5.7,0,9.7,2.7,12.1,6.8v-6.4H400.7z M396.1,473.9c0-0.7,0.1-1.4,0.1-2.1
		c-0.4-6.4-4.4-11.2-10.2-11.2h-0.1c-7,0-11,5.1-11,12.2c0,7.3,4.1,12.2,11,12.2h0.1C391.7,485,395.7,480.2,396.1,473.9z
		 M377.2,451.4c-0.7-0.7-1-1.5-1-2.5c0-0.9,0.3-1.8,1-2.5s1.5-1,2.5-1c0.9,0,1.8,0.3,2.5,1s1,1.5,1,2.5c0,0.9-0.3,1.8-1,2.5
		s-1.5,1-2.5,1C378.7,452.4,377.9,452.1,377.2,451.4z M390.2,451.4c-0.7-0.7-1-1.5-1-2.5c0-0.9,0.3-1.8,1-2.5s1.5-1,2.5-1
		c0.9,0,1.8,0.3,2.5,1s1,1.5,1,2.5c0,0.9-0.3,1.8-1,2.5s-1.5,1-2.5,1C391.7,452.4,390.8,452.1,390.2,451.4z"/>
	<path class="st0" d="M426.7,483.2v4.5c-0.4,0.3-2.7,1.8-5.2,1.8c-4.9,0-9.1-3-9.1-8.4v-20.6h-5.9v-3.9h5.9v-9.1h4.5v9.1h9.7v3.9
		H417v20.4c0,3,1.9,4.1,4.4,4.1C423.6,484.9,426.2,483.6,426.7,483.2z"/>
	<path class="st0" d="M482.8,457.3c0,6.9-5.8,13.7-13.7,13.7h-12.4v18h-4.5v-45.4h16.9C477,443.6,482.8,450.4,482.8,457.3z
		 M478.3,457.3c0-5-4.1-9.1-9.2-9.1h-12.4v18.3h12.4C474.2,466.5,478.3,462.3,478.3,457.3z"/>
	<path class="st0" d="M487.9,472.8c0-9.2,6.5-16.7,15.5-16.7h0.1c8.9,0,15.4,7.4,15.4,16.7c0,9.2-6.5,16.7-15.4,16.7h-0.1
		C494.4,489.4,487.9,482,487.9,472.8z M503.5,484.9c6.4,0,10.9-5.4,10.9-12.1c0-6.5-4.4-12.1-10.9-12.1h-0.1
		c-6.5,0.1-10.9,5.4-10.9,12.1C492.5,479.5,496.9,484.9,503.5,484.9L503.5,484.9z"/>
	<path class="st0" d="M543.5,483.2v4.5c-0.4,0.3-2.7,1.8-5.2,1.8c-4.9,0-9.1-3-9.1-8.4v-20.6h-5.9v-3.9h5.9v-9.1h4.5v9.1h9.7v3.9
		h-9.7v20.4c0,3,1.9,4.1,4.4,4.1C540.4,484.9,542.9,483.6,543.5,483.2z"/>
	<path class="st0" d="M554.2,483.3c1.3,1.1,3,1.8,5,1.8c4.4,0,6.8-2.4,6.8-5.3c0-3-2-4.4-6.8-5.4l-3.3-0.8c-3.2-0.8-7.6-2.7-7.6-8.5
		c0-4.7,4.2-9.1,10.8-9c6.7,0.1,10.8,5.6,10.8,10.1h-4.6c0-1.4-0.7-2.9-1.9-4c-1.1-0.9-2.5-1.6-4.4-1.6c-3.6,0-6.2,1.9-6.2,4.5
		c0,2.6,1.6,3.9,4.9,4.6l3.6,0.8c6.2,1.3,9.2,4.7,9.2,9.3c0,5-4,9.6-11.4,9.6c-7.8,0-11.6-6.1-11.6-10.8h4.4
		C552,480.3,552.8,482.1,554.2,483.3z"/>
	<path class="st0" d="M606.8,489h-4.5v-5.9c-2.5,3.8-6.6,6.3-11.7,6.3c-7.6,0-14.1-7.3-14.1-16.7s6.5-16.7,14.1-16.7
		c5.1,0,9.2,2.5,11.7,6.4v-18.9h4.5V489z M602.3,472.8c0-6.9-3.7-12.2-10.2-12.2c-6.6,0-11.1,5.3-11.1,12.2S585.5,485,592,485
		C598.6,485,602.3,479.6,602.3,472.8z"/>
	<path class="st0" d="M645.5,456.5v3.9v12.2c0,5.4,0,7.1,0,12.5v0.1v3.8h-4.6c0-3.1,0-5.1,0-6.2c-2.3,4-6.3,6.6-12,6.6h-0.1
		c-7.6,0-13.7-7.1-13.7-16.7c0-9.3,6.1-16.7,13.7-16.7h0.1c5.7,0,9.7,2.7,12.1,6.8v-6.4H645.5z M640.9,473.9c0-0.7,0.1-1.4,0.1-2.1
		c-0.4-6.4-4.4-11.2-10.2-11.2h-0.1c-7,0-11,5.1-11,12.2c0,7.3,4.1,12.2,11,12.2h0.1C636.5,485,640.5,480.2,640.9,473.9z"/>
	<path class="st0" d="M701.5,468.1v21H697v-20.6c0-4.4-3.6-8-8.1-8s-8.1,3.6-8.1,8V489h-4.5v-20.6c0-4.4-3.7-8-8-8
		c-4.5,0-8.1,3.7-8.1,8V489h-4.5v-32.6h4.5v4.2c2.1-2.8,5.5-4.5,9.2-4.5c4.2,0,8.1,2.5,10,6.2l0.2,0.4c1.8-3.8,5.9-6.6,10.5-6.6
		C696.2,456.1,701.5,461.8,701.5,468.1z"/>
</g>
</svg>
